<svg width="147" height="183" viewBox="0 0 147 183" fill="none" xmlns="http://www.w3.org/2000/svg">
<path d="M25.0082 28.4692H16.6679L0 173.855L54.9746 172.01L25.0082 28.4692Z" fill="#3F3D56"/>
<path opacity="0.2" d="M25.0082 28.4692H16.6679L0 173.855L54.9746 172.01L25.0082 28.4692Z" fill="black"/>
<path d="M22.228 26.6113L12.0427 172.932L136.815 182.195L147 39.5766L22.228 26.6113Z" fill="#3F3D56"/>
<path opacity="0.2" d="M64.2373 41.4345C65.2633 41.4345 66.095 40.6028 66.095 39.5768C66.095 38.5508 65.2633 37.7191 64.2373 37.7191C63.2114 37.7191 62.3796 38.5508 62.3796 39.5768C62.3796 40.6028 63.2114 41.4345 64.2373 41.4345Z" fill="black"/>
<path opacity="0.2" d="M103.133 46.0596C104.159 46.0596 104.991 45.2278 104.991 44.2019C104.991 43.1759 104.159 42.3442 103.133 42.3442C102.107 42.3442 101.275 43.1759 101.275 44.2019C101.275 45.2278 102.107 46.0596 103.133 46.0596Z" fill="black"/>
<path d="M103.594 44.2147H102.672C102.672 43.8175 103.325 4.75502 80.8922 1.15497C76.4722 0.450331 72.8593 1.44957 70.1561 4.12719C60.8933 13.3131 64.724 39.2566 64.7624 39.5129L63.8527 39.6538C63.6862 38.5648 59.9196 12.9801 69.5155 3.47386C72.4366 0.565632 76.3313 -0.52339 81.0459 0.232493C104.261 3.94785 103.607 43.8175 103.594 44.2147Z" fill="#3F3D56"/>
<circle cx="79.5" cy="108.5" r="17.5" fill="white" fill-opacity="0.5"/>
</svg>
