<svg width="140" height="135" viewBox="0 0 140 135" fill="none" xmlns="http://www.w3.org/2000/svg">
<path d="M102.31 0H101.974C88.6143 0 76.7987 7.08919 70.0022 17.5501C63.2057 7.08919 51.3902 0 38.03 0H37.6942C27.6678 0.0958136 18.0841 4.15565 11.0259 11.2972C3.96776 18.4388 0.00544292 28.0851 0 38.1398C0 50.6256 5.45332 68.3418 16.0869 82.9198C36.3465 110.697 70.0022 135 70.0022 135C70.0022 135 103.658 110.702 123.913 82.9198C134.551 68.3418 140 50.6256 140 38.1398C139.995 28.0859 136.033 18.4403 128.976 11.2988C121.918 4.15734 112.336 0.0969891 102.31 0ZM97.5061 85.0569C95.9846 85.0511 94.5003 84.584 93.2483 83.7171C91.9962 82.8501 91.0348 81.6238 90.4903 80.199H82.5028C81.9768 80.1958 81.465 80.0279 81.0388 79.7188C80.6125 79.4097 80.2932 78.9749 80.1253 78.475L77.6718 71.0625L69.9082 98.2655C69.757 98.7892 69.4405 99.2495 69.0062 99.5774C68.5718 99.9053 68.0431 100.083 67.4994 100.084H67.3427C66.7755 100.056 66.2348 99.8344 65.811 99.4553C65.3873 99.0761 65.1061 98.5626 65.0145 98.0006L57.0136 49.7456L51.1663 78.2999C51.0322 78.8424 50.7209 79.3241 50.2818 79.6683C49.8428 80.0126 49.3014 80.1994 48.7441 80.199H37.4927C37.1554 80.2133 36.8188 80.1591 36.5029 80.0395C36.1871 79.92 35.8986 79.7376 35.6549 79.5033C35.4112 79.2691 35.2173 78.9878 35.0848 78.6765C34.9524 78.3651 34.8841 78.0301 34.8841 77.6916C34.8841 77.353 34.9524 77.018 35.0848 76.7067C35.2173 76.3953 35.4112 76.114 35.6549 75.8798C35.8986 75.6455 36.1871 75.4631 36.5029 75.3436C36.8188 75.224 37.1554 75.1698 37.4927 75.1841H46.7741L55.0571 36.7929C55.193 36.2253 55.5214 35.7226 55.986 35.3709C56.4506 35.0192 57.0227 34.8403 57.6043 34.8647C58.1859 34.8891 58.741 35.1153 59.1748 35.5047C59.6085 35.894 59.8938 36.4224 59.9821 36.9994L68.1531 86.2242L75.1108 61.8857C75.2557 61.3731 75.562 60.9212 75.984 60.5975C76.406 60.2739 76.9212 60.0958 77.4524 60.0898H77.5017C78.0279 60.09 78.5406 60.2567 78.9667 60.5663C79.3928 60.8759 79.7105 61.3125 79.8746 61.8138L84.3116 75.1975H90.3917C90.824 73.8806 91.6108 72.7089 92.6652 71.812C93.7196 70.9151 95.0006 70.3277 96.3669 70.1147C97.7331 69.9018 99.1315 70.0715 100.408 70.6051C101.684 71.1388 102.788 72.0156 103.599 73.1388C104.409 74.2621 104.895 75.5881 105.001 76.9704C105.108 78.3528 104.831 79.7378 104.202 80.9726C103.573 82.2074 102.617 83.2439 101.437 83.9678C100.258 84.6917 98.9023 85.0748 97.5196 85.0748L97.5061 85.0569Z" fill="#3F3D56"/>
</svg>
