<svg width="120" height="53" viewBox="0 0 120 53" fill="none" xmlns="http://www.w3.org/2000/svg">
<path d="M7.29492 36.1288H2.86523V10.535H7.29492V36.1288ZM16.3125 17.1093L16.4355 19.3065C17.8418 17.6073 19.6875 16.7577 21.9727 16.7577C25.9336 16.7577 27.9492 19.0253 28.0195 23.5604V36.1288H23.748V23.8065C23.748 22.5995 23.4844 21.7089 22.957 21.1347C22.4414 20.5487 21.5918 20.2558 20.4082 20.2558C18.6855 20.2558 17.4023 21.035 16.5586 22.5936V36.1288H12.2871V17.1093H16.3125ZM43.0488 30.9608C43.0488 30.1991 42.7324 29.619 42.0996 29.2206C41.4785 28.8222 40.4414 28.4706 38.9883 28.1659C37.5352 27.8612 36.3223 27.4745 35.3496 27.0058C33.2168 25.9745 32.1504 24.4804 32.1504 22.5233C32.1504 20.8827 32.8418 19.5116 34.2246 18.41C35.6074 17.3085 37.3652 16.7577 39.498 16.7577C41.7715 16.7577 43.6055 17.3202 45 18.4452C46.4062 19.5702 47.1094 21.0292 47.1094 22.8222H42.8379C42.8379 22.0018 42.5332 21.3222 41.9238 20.7831C41.3145 20.2323 40.5059 19.9569 39.498 19.9569C38.5605 19.9569 37.793 20.1737 37.1953 20.6073C36.6094 21.0409 36.3164 21.621 36.3164 22.3475C36.3164 23.0038 36.5918 23.5136 37.1426 23.8768C37.6934 24.2401 38.8066 24.6093 40.4824 24.9843C42.1582 25.3475 43.4707 25.787 44.4199 26.3026C45.3809 26.8065 46.0898 27.4159 46.5469 28.1308C47.0156 28.8456 47.25 29.7128 47.25 30.7323C47.25 32.4433 46.541 33.8319 45.123 34.8983C43.7051 35.953 41.8477 36.4804 39.5508 36.4804C37.9922 36.4804 36.6035 36.1991 35.3848 35.6366C34.166 35.0741 33.2168 34.3007 32.5371 33.3163C31.8574 32.3319 31.5176 31.2714 31.5176 30.1347H35.666C35.7246 31.1425 36.1055 31.9218 36.8086 32.4725C37.5117 33.0116 38.4434 33.2811 39.6035 33.2811C40.7285 33.2811 41.584 33.0702 42.1699 32.6483C42.7559 32.2147 43.0488 31.6522 43.0488 30.9608ZM55.1953 19.1835C56.5898 17.5663 58.3535 16.7577 60.4863 16.7577C64.541 16.7577 66.5977 19.0722 66.6562 23.7011V36.1288H62.3848V23.8593C62.3848 22.5468 62.0977 21.621 61.5234 21.0819C60.9609 20.5311 60.1289 20.2558 59.0273 20.2558C57.3164 20.2558 56.0391 21.0175 55.1953 22.5409V36.1288H50.9238V9.1288H55.1953V19.1835ZM70.1895 26.4433C70.1895 24.58 70.5586 22.9042 71.2969 21.4159C72.0352 19.9159 73.0723 18.7675 74.4082 17.9706C75.7441 17.162 77.2793 16.7577 79.0137 16.7577C81.5801 16.7577 83.6602 17.5839 85.2539 19.2362C86.8594 20.8886 87.7266 23.08 87.8555 25.8104L87.873 26.8124C87.873 28.6874 87.5098 30.3632 86.7832 31.8397C86.0684 33.3163 85.0371 34.4589 83.6895 35.2675C82.3535 36.0761 80.8066 36.4804 79.0488 36.4804C76.3652 36.4804 74.2148 35.5897 72.5977 33.8085C70.9922 32.0155 70.1895 29.6308 70.1895 26.6542V26.4433ZM74.4609 26.8124C74.4609 28.7694 74.8652 30.3046 75.6738 31.4179C76.4824 32.5194 77.6074 33.0702 79.0488 33.0702C80.4902 33.0702 81.6094 32.5077 82.4062 31.3827C83.2148 30.2577 83.6191 28.6112 83.6191 26.4433C83.6191 24.5214 83.2031 22.9979 82.3711 21.8729C81.5508 20.7479 80.4316 20.1854 79.0137 20.1854C77.6191 20.1854 76.5117 20.7421 75.6914 21.8554C74.8711 22.9569 74.4609 24.6093 74.4609 26.8124ZM108.141 26.8124C108.141 29.7538 107.473 32.1034 106.137 33.8612C104.801 35.6073 103.008 36.4804 100.758 36.4804C98.6719 36.4804 97.002 35.7948 95.748 34.4237V43.4413H91.4766V17.1093H95.4141L95.5898 19.0429C96.8438 17.5194 98.5488 16.7577 100.705 16.7577C103.025 16.7577 104.842 17.6249 106.154 19.3593C107.479 21.0819 108.141 23.4784 108.141 26.5487V26.8124ZM103.887 26.4433C103.887 24.5448 103.506 23.039 102.744 21.9257C101.994 20.8124 100.916 20.2558 99.5098 20.2558C97.7637 20.2558 96.5098 20.9765 95.748 22.4179V30.8554C96.5215 32.3319 97.7871 33.0702 99.5449 33.0702C100.904 33.0702 101.965 32.5253 102.727 31.4354C103.5 30.3339 103.887 28.6698 103.887 26.4433Z" fill="black"/>
<ellipse cx="2.05128" cy="3.2175" rx="2.05128" ry="3.2175" fill="#1170FF"/>
</svg>
