<svg width="188" height="193" viewBox="0 0 188 193" fill="none" xmlns="http://www.w3.org/2000/svg">
<path fill-rule="evenodd" clip-rule="evenodd" d="M187.084 69.4006H185.022V25.9102C185.022 22.6047 184.177 19.3316 182.535 16.2776C180.892 13.2237 178.485 10.4489 175.45 8.11155C172.416 5.7742 168.813 3.92011 164.848 2.65515C160.883 1.39019 156.633 0.739125 152.341 0.739136H32.7104C28.4186 0.739128 24.1689 1.39019 20.2039 2.65515C16.2388 3.92012 12.6361 5.77421 9.60136 8.11156C6.56664 10.4489 4.15936 13.2238 2.51699 16.2777C0.87461 19.3316 0.0292921 22.6047 0.0292969 25.9102V192.72H9.04695V26.0855C9.04695 23.617 9.67823 21.1726 10.9047 18.892C12.1313 16.6114 13.929 14.5392 16.1953 12.7937C18.4616 11.0482 21.152 9.66354 24.1131 8.71889C27.0741 7.77423 30.2478 7.28802 33.4528 7.28802H48.038C47.3199 8.64406 47.0457 10.1153 47.2398 11.5722C47.4338 13.029 48.09 14.4268 49.1506 15.6423C50.2112 16.8578 51.6437 17.8538 53.3218 18.5425C54.9998 19.2312 56.8721 19.5914 58.7735 19.5915H127.309C129.21 19.5914 131.082 19.2312 132.76 18.5425C134.438 17.8538 135.871 16.8578 136.931 15.6423C137.992 14.4268 138.648 13.029 138.842 11.5722C139.036 10.1153 138.762 8.64408 138.044 7.28804H153.66C156.865 7.28804 160.039 7.77425 163 8.7189C165.961 9.66356 168.651 11.0482 170.917 12.7937C173.184 14.5392 174.981 16.6114 176.208 18.892C177.434 21.1726 178.066 23.617 178.066 26.0855V192.72H185.022V100.358H187.084V69.4006Z" fill="#3F3D56"/>
<line x1="145.5" y1="14" x2="145.5" y2="18" stroke="#3F3D56"/>
<line x1="143.5" y1="15" x2="143.5" y2="18" stroke="#3F3D56"/>
<line x1="141.5" y1="16" x2="141.5" y2="18" stroke="#3F3D56"/>
<line x1="147.5" y1="13" x2="147.5" y2="18" stroke="#3F3D56"/>
<line x1="149.5" y1="11" x2="149.5" y2="18" stroke="#3F3D56"/>
<path d="M154 18V15.8462V14H163V15.2308H164V15.8462V17.0769H163V18H154Z" fill="#3F3D56" stroke="#3F3D56"/>
<path d="M25.6648 15.5V19H25.1698V15.935H24.3798V15.5H25.6648ZM28.8904 18.565V19H26.3754V18.66L27.8004 17.285C27.9738 17.1183 28.0904 16.975 28.1504 16.855C28.2104 16.7317 28.2404 16.6083 28.2404 16.485C28.2404 16.3017 28.1754 16.16 28.0454 16.06C27.9188 15.9567 27.7354 15.905 27.4954 15.905C27.1088 15.905 26.8104 16.0317 26.6004 16.285L26.2604 15.99C26.3971 15.8233 26.5754 15.6933 26.7954 15.6C27.0188 15.5067 27.2671 15.46 27.5404 15.46C27.9071 15.46 28.1988 15.5483 28.4154 15.725C28.6321 15.8983 28.7404 16.135 28.7404 16.435C28.7404 16.6217 28.7004 16.7983 28.6204 16.965C28.5404 17.1317 28.3888 17.3217 28.1654 17.535L27.0954 18.565H28.8904ZM29.6315 17.01C29.5382 17.01 29.4582 16.9783 29.3915 16.915C29.3249 16.8483 29.2915 16.765 29.2915 16.665C29.2915 16.5683 29.3249 16.4883 29.3915 16.425C29.4582 16.3583 29.5382 16.325 29.6315 16.325C29.7249 16.325 29.8032 16.3567 29.8665 16.42C29.9299 16.4833 29.9615 16.565 29.9615 16.665C29.9615 16.765 29.9282 16.8483 29.8615 16.915C29.7982 16.9783 29.7215 17.01 29.6315 17.01ZM29.6315 19.03C29.5382 19.03 29.4582 18.9983 29.3915 18.935C29.3249 18.8683 29.2915 18.785 29.2915 18.685C29.2915 18.5883 29.3249 18.5083 29.3915 18.445C29.4582 18.3783 29.5382 18.345 29.6315 18.345C29.7249 18.345 29.8032 18.3767 29.8665 18.44C29.9299 18.5033 29.9615 18.585 29.9615 18.685C29.9615 18.785 29.9282 18.8683 29.8615 18.935C29.7982 18.9983 29.7215 19.03 29.6315 19.03ZM34.2371 18.565V19H31.7221V18.66L33.1471 17.285C33.3204 17.1183 33.4371 16.975 33.4971 16.855C33.5571 16.7317 33.5871 16.6083 33.5871 16.485C33.5871 16.3017 33.5221 16.16 33.3921 16.06C33.2654 15.9567 33.0821 15.905 32.8421 15.905C32.4554 15.905 32.1571 16.0317 31.9471 16.285L31.6071 15.99C31.7438 15.8233 31.9221 15.6933 32.1421 15.6C32.3654 15.5067 32.6138 15.46 32.8871 15.46C33.2538 15.46 33.5454 15.5483 33.7621 15.725C33.9788 15.8983 34.0871 16.135 34.0871 16.435C34.0871 16.6217 34.0471 16.7983 33.9671 16.965C33.8871 17.1317 33.7354 17.3217 33.5121 17.535L32.4421 18.565H34.2371ZM37.6004 18.14H36.9354V19H36.4504V18.14H34.5054V17.79L36.2954 15.5H36.8354L35.1204 17.71H36.4654V16.95H36.9354V17.71H37.6004V18.14Z" fill="#3F3D56"/>
<path fill-rule="evenodd" clip-rule="evenodd" d="M55 93H133.466V135H55V93ZM99.0172 110.862H66.4827V107.862H99.0172V110.862ZM106.034 110.862H121.983V107.862H106.034V110.862ZM114.328 119.155H66.4827V116.155H114.328V119.155Z" fill="#3F3D56"/>
</svg>
